<svg xmlns="http://www.w3.org/2000/svg" width="320" height="320" fill="none" viewBox="0 0 320 320"><path fill="#42AEEA" d="M300 160a140 140 0 0 1-57.711 113.261l-23.513-32.364a100 100 0 0 0 24.368-25.342A100 100 0 0 0 259.995 160zm-124.357 98.765-.15.021.368-.058q-.108.018-.218.037m-46.351-3.603-.192-.06q-.06-.02-.118-.04zM205 220l-24.25 8H139.5l-23.5-8v-72h89zm-45-40a8 8 0 0 0-8 8v16a8 8 0 0 0 16 0v-16a8 8 0 0 0-8-8m0-119.995a100 100 0 0 0-45.397 10.898h.001a100 100 0 0 0-10.185 5.972l.004-.004a100 100 0 0 0-43.151 67.267l-.059.368-.198 1.313a100 100 0 0 0 3.842 44.949l.08.252-.038-.12-38.047 12.363A140 140 0 0 1 160 20z"/><path fill="#1D1D1B" d="M164 16.056C240.351 18.138 301.862 79.649 303.944 156H304v4q0 .811-.01 1.623l-.008.529a166 166 0 0 1-.038 1.823l-.004.146c-.96 34.166-13.822 65.353-34.586 89.567l-.083.099q-.366.425-.735.848l-.126.144q-1.063 1.215-2.152 2.406-.33.36-.66.717l-.41.439q-.348.374-.701.744l-.389.41q-1.065 1.114-2.154 2.204l-.297.298q-.44.438-.882.872l-.3.293a112 112 0 0 1-1.149 1.108q-.542.515-1.088 1.025l-.544.503-.452.417q-.378.347-.76.69l-.312.281a144 144 0 0 1-8.313 6.92l.03.041-2.046 1.486c-22.266 16.554-49.476 26.828-79.013 28.205l-.512.023-.147.006-.04.002q-.461.02-.924.036l-.234.008-.188.007q-.352.012-.706.021-.215.007-.43.013-.67.016-1.339.026l-.194.003-.061.001-.357.005-.569.005-.372.003-.69.002L160 304l-.081-.001h-.057l-.5-.001a138 138 0 0 1-1.12-.009l-.088-.001-.074-.002q-.316-.004-.634-.01l-.896-.018-.41-.01-.31-.01-.431-.012-.574-.02c-34.248-1.209-65.452-14.379-89.563-35.46l-.254-.222-.073-.065q-.437-.383-.87-.77l-.227-.203-.94-.852q-.304-.277-.606-.558-.335-.309-.668-.621-.37-.346-.74-.696-.172-.162-.343-.325l-.398-.383-.17-.163-.51-.496-.151-.148q-.043-.04-.084-.083l-.271-.264a150 150 0 0 1-1.62-1.621l-.257-.262-.219-.225-.5-.516-.167-.172-.326-.34-.36-.38-.167-.176a131 131 0 0 1-1.342-1.44l-.34-.37-.51-.561-.33-.367-.079-.088-.159-.178q-.424-.474-.844-.953l-.273-.313c-11.757-13.472-21.046-29.152-27.163-46.338l-.017.006-.202-.622c-4.701-13.403-7.475-27.711-7.992-42.594l-.014-.414-.02-.673-.015-.551q-.026-1.152-.035-2.303l-.005-.509-.001-.241v-.726q0-.224.003-.446l.003-.465q0-.159.003-.317l.008-.565q0-.107.003-.214.009-.623.024-1.246l.018-.643q.008-.281.017-.562l.01-.258c1.205-34.98 14.885-66.79 36.73-91.121a182 182 0 0 1 .978-1.078l.268-.292.338-.367q.15-.163.301-.324l.288-.307.38-.403.365-.386.232-.241a142 142 0 0 1 2.33-2.38l.28-.28.587-.577q.458-.45.92-.894l.174-.168.244-.235.41-.39a141 141 0 0 1 1.246-1.167l.43-.397q1.261-1.159 2.549-2.287l.15-.13q.445-.39.897-.777l.125-.108c23.672-20.3 54.008-33.045 87.277-34.502l.057-.003q.84-.037 1.683-.064l.614-.02.082-.001.603-.016.406-.009.642-.011.297-.005.359-.004A131 131 0 0 1 160 16h4zM31.948 205.812q.3.836.61 1.668a136 136 0 0 0 6.495 14.71l.164.318q.845 1.631 1.731 3.238l.123.221a136 136 0 0 0 8.551 13.484q1.053 1.463 2.145 2.898a136 136 0 0 0 12.066 13.818q.648.648 1.305 1.285a137 137 0 0 0 7.382 6.678 136 136 0 0 0 8.05 6.264 136 136 0 0 0 35.339 18.259 136 136 0 0 0 17.559 4.734 136.4 136.4 0 0 0 26.189 2.61q.58 0 1.161-.003.352-.001.703-.005 1.807-.02 3.613-.089a135.4 135.4 0 0 0 19.965-2.238 139 139 0 0 0 3.45-.694l.273-.059a134 134 0 0 0 7.363-1.813 136 136 0 0 0 6.835-2.081l.282-.095q1.63-.547 3.245-1.135l.34-.125a136 136 0 0 0 6.643-2.639l.299-.129q1.578-.68 3.139-1.4l.291-.136a135 135 0 0 0 10.095-5.208 135.96 135.96 0 0 0 9.312-5.819l-18.812-25.895C201.313 257.527 181.413 264 160 264c-44.81 0-83-28.34-97.627-68.073zM263.925 164c-1.192 31.522-16.415 59.452-39.603 77.727l18.817 25.899a136 136 0 0 0 14.124-12.57l.28-.287a138 138 0 0 0 5.76-6.313A136.002 136.002 0 0 0 295.939 164zM160 64.005a96 96 0 0 0-13.955 1.02l-.245.035a98 98 0 0 0-6.706 1.25q-.113.023-.227.05a96.19 96.19 0 0 0-6.642 1.751l-.126.037q-.652.199-1.301.407a96 96 0 0 0-14.345 5.895l-.099.052a96 96 0 0 0-6.036 3.36l-.263.16a96 96 0 0 0-27.786 25.649q-.221.307-.44.615l-.1.141q-.166.233-.33.467a96 96 0 0 0-3.603 5.534l-.23.382a96 96 0 0 0-10.994 27.14l-.028.12a96 96 0 0 0-1.335 6.777l-.033.201q-.1.639-.193 1.279a96 96 0 0 0 2.07 37.667q.062.241.127.484a95 95 0 0 0 2.883 9.083l.053.142q.431 1.15.892 2.285a97 97 0 0 0 2.383 5.411l.119.246q.54 1.12 1.106 2.225l.158.305a98 98 0 0 0 3.464 6.124 97 97 0 0 0 3.943 5.906q.708.98 1.44 1.942l.151.2a97 97 0 0 0 8.35 9.532q.439.438.883.871a96 96 0 0 0 8.647 7.477l.14.106q1.02.778 2.061 1.528a95.5 95.5 0 0 0 12.008 7.383 96 96 0 0 0 10.368 4.613l.209.079q1.174.438 2.359.845a95.99 95.99 0 0 0 55.813 2.004l.183-.048a93 93 0 0 0 4.149-1.211 94.744 94.744 0 0 0 8.98-3.339 97 97 0 0 0 6.351-3.012A96 96 0 0 0 255.995 160v-.776c-.415-52.404-42.816-94.804-95.22-95.22zM160 80c17.673 0 32 14.327 32 32v11.5a4 4 0 0 1-8 0V112c0-13.255-10.745-24-24-24s-24 10.745-24 24v32h73v78.893L181.393 232h-42.555L112 222.863V144h16v-32c0-17.673 14.327-32 32-32m-40 137.137L140.161 224h39.945L201 217.107V152h-81zM160 176c6.627 0 12 5.373 12 12v16c0 6.627-5.373 12-12 12s-12-5.373-12-12v-16c0-6.627 5.373-12 12-12m0 8a4 4 0 0 0-4 4v16a4 4 0 0 0 8 0v-16a4 4 0 0 0-4-4m-4-159.94a136 136 0 0 0-57.643 14.712q-.092.046-.183.094-.855.437-1.702.884a136 136 0 0 0-36.258 27.845l-.129.14A136 136 0 0 0 50.03 79.983l-.143.2a136 136 0 0 0-3.264 4.708l-.2.302a136 136 0 0 0-8.73 15.336l-.097.201a136 136 0 0 0-10.415 30.033l-.047.216a136 136 0 0 0-1.475 7.848A136 136 0 0 0 24.003 160v.729q.007 1.092.03 2.18.06 2.82.236 5.633l.014.22a136 136 0 0 0 5.153 29.3l.04.141 30.426-9.886A104 104 0 0 1 56 160c0-56.098 44.416-101.823 100-103.925zm8 32.015c54.257 2.052 97.873 45.668 99.925 99.925h32.015C293.863 84.068 235.932 26.136 164 24.059z"/></svg>